HIERARCHY
ROOT Hips
{
	OFFSET 0.00000 0.00000 0.00000
	CHANNELS 6 Xposition Yposition Zposition Zrotation Yrotation Xrotation 
	JOINT LHipJoint
	{
		OFFSET 0 0 0
		CHANNELS 3 Zrotation Yrotation Xrotation
		JOINT LeftHip
		{
			OFFSET 1.56741 -1.82513 0.67319
			CHANNELS 3 Zrotation Yrotation Xrotation
			JOINT LeftKnee
			{
				OFFSET 2.35708 -6.47604 0.00000
				CHANNELS 3 Zrotation Yrotation Xrotation
				JOINT LeftAnkle
				{
					OFFSET 2.70636 -7.43567 0.00000
					CHANNELS 3 Zrotation Yrotation Xrotation
					JOINT LeftToe
					{
						OFFSET 0.20427 -0.56122 2.08535
						CHANNELS 3 Zrotation Yrotation Xrotation
						End Site
						{
							OFFSET 0.00000 -0.00000 1.08535
						}
					}
				}
			}
		}
	}
	JOINT RHipJoint
	{
		OFFSET 0 0 0
		CHANNELS 3 Zrotation Yrotation Xrotation
		JOINT RightHip
		{
			OFFSET -1.51422 -1.82513 0.67319
			CHANNELS 3 Zrotation Yrotation Xrotation
			JOINT RightKnee
			{
				OFFSET -2.48824 -6.83638 0.00000
				CHANNELS 3 Zrotation Yrotation Xrotation
				JOINT RightAnkle
				{
					OFFSET -2.70033 -7.41909 0.00000
					CHANNELS 3 Zrotation Yrotation Xrotation
					JOINT RightToe
					{
						OFFSET -0.19750 -0.54263 2.22151
						CHANNELS 3 Zrotation Yrotation Xrotation
						End Site
						{
							OFFSET -0.00000 -0.00000 1.14915
						}
					}
				}
			}
		}
	}
	JOINT lowerback
	{
		OFFSET 0 0 0
		CHANNELS 3 Zrotation Yrotation Xrotation
		JOINT Chest
		{
			OFFSET -0.01567 2.12874 -0.15842
			CHANNELS 3 Zrotation Yrotation Xrotation
			JOINT Chest2
			{
				OFFSET 0.06098 2.13326 -0.01043
				CHANNELS 3 Zrotation Yrotation Xrotation
				JOINT lowerneck
				{
					OFFSET 0 0 0
					CHANNELS 3 Zrotation Yrotation Xrotation
					JOINT Neck
					{
						OFFSET -0.05040 1.78432 0.13387
						CHANNELS 3 Zrotation Yrotation Xrotation
						JOINT Head
						{
							OFFSET -0.00180 1.76880 -0.33303
							CHANNELS 3 Zrotation Yrotation Xrotation
							End Site
							{
								OFFSET 0.00734 1.81249 -0.12719
							}
						}
					}
				}
				JOINT LeftCollar
				{
					OFFSET 0 0 0
					CHANNELS 3 Zrotation Yrotation Xrotation
					JOINT LeftShoulder
					{
						OFFSET 3.72199 0.94188 -0.54317
CHANNELS 3 Zrotation Xrotation Yrotation
						JOINT LeftElbow
						{
OFFSET 0 -5.146010 0.000000
CHANNELS 3 Zrotation Xrotation Yrotation
							JOINT LeftWrist
							{
OFFSET 0 -3.644520 -0.000000
CHANNELS 3 Zrotation Xrotation Yrotation
								JOINT lhand
								{
									OFFSET 0 0 0
CHANNELS 3 Zrotation Xrotation Yrotation
									JOINT LFingers
									{
OFFSET 0 -0.562280 0.000000
CHANNELS 3 Zrotation Xrotation Yrotation
										End Site
										{
OFFSET 0 -0.453320 0.000000
										}
									}
								}
								JOINT LThumb
								{
OFFSET 0 0.000000 0.000000
CHANNELS 3 Zrotation Xrotation Yrotation
									End Site
									{
OFFSET 0 -0.460250 0.460250
									}
								}
							}
						}
					}
				}
				JOINT RightCollar
				{
					OFFSET 0 0 0
					CHANNELS 3 Zrotation Yrotation Xrotation
					JOINT RightShoulder
					{
						OFFSET -3.30253 1.22679 -0.46941
CHANNELS 3 Zrotation Xrotation Yrotation
						JOINT RightElbow
						{
OFFSET 0 -5.339130 0.000000
CHANNELS 3 Zrotation Xrotation Yrotation
							JOINT RightWrist
							{
OFFSET 0 -3.564780 -0.000000
CHANNELS 3 Zrotation Xrotation Yrotation
								JOINT rhand
								{
									OFFSET 0 0 0
CHANNELS 3 Zrotation Xrotation Yrotation
									JOINT RFingers
									{
OFFSET 0 -0.857470 0.000000
CHANNELS 3 Zrotation Xrotation Yrotation
										End Site
										{
OFFSET 0 -0.691320 0.000000
										}
									}
								}
								JOINT RThumb
								{
OFFSET 0 0.000000 0.000000
CHANNELS 3 Zrotation Xrotation Yrotation
									End Site
									{
OFFSET 0 -0.701870 0.701870
									}
								}
							}
						}
					}
				}
			}
		}
	}
}
MOTION
Frames: 7
Frame Time: 0.008333333333333333
-11.852418 17.281109 24.587700 323.347306 -81.980001 -323.711566 0.000000 0.000000 0.000000 -8.344129 -22.114126 -11.907345 2.639865 10.087842 29.261739 -5.350320 -37.204949 11.305941 0.115110 2.185719 6.019303 0.000000 0.000000 0.000000 18.368050 14.908340 -13.360934 -4.741364 -13.086402 39.692961 -0.919051 17.575578 -19.732957 -0.360324 3.851859 -10.660856 -1.327132 3.116469 9.702139 1.212971 3.963360 2.834864 1.529029 1.938056 -2.658786 -4.343296 0.798317 -12.273483 1.840843 1.076776 28.891623 1.523505 0.019263 11.363556 0.000000 0.000000 0.000000 5.492011 13.337481 0.550211 15.124262 -24.318890 3.276973 20.583211 9.228317 -30.659914 0.000000 0.000000 0.000000 -7.125000 0.000000 0.000000 -13.035383 61.856397 5.396016 0.000000 0.000000 0.000000 -5.417094 9.949924 26.385994 -35.248562 -44.988752 -14.988839 -15.614386 13.292145 -1.844251 0.000000 0.000000 0.000000 7.125000 0.000000 0.000000 8.456894 28.031447 3.531591
-11.690029 17.283169 23.726019 342.224087 -79.724056 -341.035598 0.000000 0.000000 0.000000 -6.342808 -21.737809 -14.005423 2.054812 8.979342 25.730679 -4.781294 -35.457827 18.594889 0.172664 2.671710 7.366267 0.000000 0.000000 0.000000 18.890833 12.724895 -15.544959 -4.517396 -12.818854 38.694075 -1.476383 14.746611 -22.625085 -0.269809 3.339251 -9.224965 -0.729110 4.450640 9.071522 1.013784 5.791658 2.965772 0.824624 2.847619 -2.166116 -4.332054 1.530153 -13.474750 1.692725 2.319146 29.420418 1.659512 0.582778 11.770727 0.000000 0.000000 0.000000 3.333488 13.961411 0.856505 14.663619 -23.675407 3.089565 19.310425 8.350432 -30.581101 0.000000 0.000000 0.000000 -7.125000 0.000000 0.000000 -14.408477 61.460425 5.841814 0.000000 0.000000 0.000000 -4.899873 7.510621 25.577779 -37.045101 -46.218348 -16.272633 -14.355209 14.597808 -3.949772 0.000000 0.000000 0.000000 7.125000 0.000000 0.000000 9.264901 25.886996 4.343821
-11.275101 17.343962 22.914809 356.973591 -72.278297 -354.404369 0.000000 0.000000 0.000000 -8.172518 -20.756536 -19.901083 2.423711 9.696461 28.000479 -2.350097 -26.690790 3.359749 0.528275 -4.652645 -12.921256 0.000000 0.000000 0.000000 18.165808 7.002204 -20.688684 -4.702422 -13.040668 39.520849 -1.614568 12.535092 -23.115336 -0.819632 5.774588 -16.132344 0.892843 4.320335 11.354103 1.512700 5.778679 3.287635 0.280463 2.821925 -2.974060 -4.046581 2.473237 -13.647719 0.246267 4.134540 28.311585 1.315142 1.320440 11.363522 0.000000 0.000000 0.000000 -0.555412 13.344445 -1.504918 15.858545 -25.328307 3.585336 19.211703 10.804593 -29.194866 0.000000 0.000000 0.000000 -7.125000 0.000000 0.000000 -13.575121 60.079334 5.049966 0.000000 0.000000 0.000000 -6.303173 6.037137 24.859702 -40.953081 -48.623946 -19.151576 -15.261085 14.047398 -2.455832 0.000000 0.000000 0.000000 7.125000 0.000000 0.000000 8.683870 27.403490 3.752571
-10.838981 17.359146 22.182990 360.130945 -64.692964 -357.430950 0.000000 0.000000 0.000000 -15.252084 -11.960103 -27.212726 5.639105 14.068585 43.514325 0.799820 -9.300132 -16.268101 4.085268 -12.272898 -36.704565 0.000000 0.000000 0.000000 18.797633 3.754164 -24.014155 -4.901271 -13.271761 40.394363 -1.549049 7.987328 -22.277160 -0.800052 5.708985 -15.942307 1.990921 4.150218 13.381434 3.551501 5.803360 3.303594 1.630364 2.802276 -4.168610 -3.075202 3.968660 -12.016366 -0.727375 6.250857 28.717132 1.043690 2.277938 11.213267 0.000000 0.000000 0.000000 -3.271570 15.635812 -12.749384 20.060903 -30.715616 5.562478 17.311309 9.223843 -27.553954 0.000000 0.000000 0.000000 -7.125000 0.000000 0.000000 -14.601606 58.036558 4.723905 0.000000 0.000000 0.000000 -9.433823 6.813760 22.253651 -44.278920 -50.410112 -21.681682 -14.893636 11.589533 -3.142421 0.000000 0.000000 0.000000 7.125000 0.000000 0.000000 8.914213 26.703967 4.002900
-10.492913 17.362582 21.568519 358.809917 -56.897482 -356.580639 0.000000 0.000000 0.000000 -19.654820 -4.189508 -28.639287 9.809299 17.300622 58.848235 0.592927 -4.351037 -13.718690 1.081424 -6.609385 -18.563292 0.000000 0.000000 0.000000 20.695546 -0.578638 -26.673108 -4.871662 -13.237739 40.265268 -1.368298 6.265857 -20.943988 -0.624737 5.038633 -14.022828 4.326599 3.952892 13.071845 5.634784 5.880325 3.520723 2.536692 2.816509 -3.758596 -0.888309 4.496816 -11.055202 -0.745761 6.506068 28.949302 0.683892 2.657049 11.182609 0.000000 0.000000 0.000000 -2.068657 15.321608 -23.721042 22.874777 -33.951137 7.068416 16.254179 10.177340 -26.257426 0.000000 0.000000 0.000000 -7.125000 0.000000 0.000000 -14.960703 56.543851 4.302494 0.000000 0.000000 0.000000 -9.020495 7.500280 15.493994 -46.382491 -51.428038 -23.314716 -14.609757 11.896724 -3.943076 0.000000 0.000000 0.000000 7.125000 0.000000 0.000000 9.074011 25.890162 4.251983
-10.111107 17.287874 21.051389 361.107539 -50.408465 -358.324000 0.000000 0.000000 0.000000 -24.259616 3.057754 -20.758206 9.244964 16.962151 56.932606 0.558318 0.083362 -14.159781 1.178580 -6.873643 -19.348262 0.000000 0.000000 0.000000 19.519411 -3.243562 -30.887354 -5.398501 -13.818967 42.516958 -1.233591 6.735937 -19.846427 -0.161307 2.587047 -7.131045 3.738067 3.299663 11.875497 6.657774 4.898681 3.558747 4.164999 2.348579 -3.187710 0.488566 5.838412 -10.858270 -0.635452 8.121334 29.316803 0.704994 3.566840 11.344371 0.000000 0.000000 0.000000 -1.380178 13.678878 -26.652403 24.930199 -36.132459 8.248785 16.293516 8.447861 -26.961798 0.000000 0.000000 0.000000 -7.125000 0.000000 0.000000 -15.319743 57.239322 4.666988 0.000000 0.000000 0.000000 -8.439157 7.257621 11.573104 -45.738410 -51.125142 -22.812208 -15.232489 13.200570 -1.014262 0.000000 0.000000 0.000000 7.125000 0.000000 0.000000 8.817897 28.880630 3.500837
-9.682408 17.134491 20.598304 365.024379 -45.377172 -360.552923 0.000000 0.000000 0.000000 -27.579466 6.637408 -6.297154 4.811646 13.165558 39.996553 0.783558 3.972667 -18.622152 0.895999 -6.032900 -16.879822 0.000000 0.000000 0.000000 16.228538 -4.907764 -36.353590 -6.353786 -14.762564 46.385565 -1.193832 5.915341 -19.540784 -0.143143 2.437042 -6.715117 1.166615 2.845054 9.614926 6.051764 3.960607 3.116366 5.190782 1.922849 -2.494255 1.167846 6.616568 -10.291659 -0.879479 9.195758 29.888178 0.636537 4.101781 11.514257 0.000000 0.000000 0.000000 1.059899 12.196928 -28.438848 26.436370 -37.636319 9.152867 16.779160 8.921109 -27.011336 0.000000 0.000000 0.000000 -7.125000 0.000000 0.000000 -14.842738 57.390831 4.572421 0.000000 0.000000 0.000000 -6.811312 7.696097 9.231064 -44.755182 -50.647953 -22.049252 -14.774419 14.488820 -1.644423 0.000000 0.000000 0.000000 7.125000 0.000000 0.000000 9.118513 28.235199 3.764100
